<svg width="12" height="20" viewBox="0 0 12 20" fill="none" xmlns="http://www.w3.org/2000/svg">
<path d="M3.4748 10.0009L10.7623 17.2884C10.9956 17.5217 11.1102 17.7967 11.1061 18.1134C11.1019 18.4301 10.9831 18.7051 10.7498 18.9384C10.5165 19.1717 10.2415 19.2884 9.9248 19.2884C9.60814 19.2884 9.33314 19.1717 9.0998 18.9384L1.4748 11.3259C1.28314 11.1342 1.14355 10.9259 1.05605 10.7009C0.968555 10.4759 0.924805 10.2426 0.924805 10.0009C0.924805 9.75922 0.968555 9.52589 1.05605 9.30089C1.14355 9.07589 1.28314 8.86756 1.4748 8.67589L9.0998 1.05089C9.33314 0.817558 9.61022 0.702974 9.93106 0.707141C10.2519 0.711308 10.529 0.830058 10.7623 1.06339C10.9956 1.29672 11.1123 1.57172 11.1123 1.88839C11.1123 2.20506 10.9956 2.48006 10.7623 2.71339L3.4748 10.0009Z" fill="#3C8DA9"/>
</svg>
