<svg width="49" height="48" viewBox="0 0 49 48" fill="none" xmlns="http://www.w3.org/2000/svg">
<path d="M7.87514 39.6919C7.01614 39.6919 6.28997 39.3952 5.69664 38.8019C5.10331 38.2086 4.80664 37.4812 4.80664 36.6199V15.3539C4.80664 14.4926 5.10331 13.7652 5.69664 13.1719C6.28997 12.5786 7.01897 12.2819 7.88364 12.2819H13.7991L16.5241 9.30689C16.8005 8.99256 17.1365 8.74722 17.5321 8.57089C17.9281 8.39489 18.3525 8.30689 18.8051 8.30689H26.8471C27.0915 8.30689 27.3048 8.39822 27.4871 8.58089C27.6695 8.76356 27.7606 8.97722 27.7606 9.22189C27.7606 9.48122 27.6695 9.70122 27.4871 9.88189C27.3048 10.0629 27.0915 10.1534 26.8471 10.1534H18.2666L14.6146 14.1284H7.88364C7.52464 14.1284 7.22981 14.2469 6.99914 14.4839C6.76847 14.7212 6.65314 15.0129 6.65314 15.3589V36.6149C6.65314 36.9739 6.76847 37.2687 6.99914 37.4994C7.22981 37.7301 7.52464 37.8454 7.88364 37.8454H37.1146C37.4736 37.8454 37.7685 37.7301 37.9991 37.4994C38.2298 37.2687 38.3451 36.9739 38.3451 36.6149V21.6514C38.3451 21.4071 38.436 21.1937 38.6176 21.0114C38.7993 20.8291 39.0166 20.7379 39.2696 20.7379C39.5226 20.7379 39.7395 20.8291 39.9201 21.0114C40.1011 21.1937 40.1916 21.4071 40.1916 21.6514V36.6149C40.1916 37.4796 39.895 38.2086 39.3016 38.8019C38.7083 39.3952 37.9821 39.6919 37.1231 39.6919H7.87514ZM38.3451 10.1534H35.3086C35.0496 10.1534 34.8295 10.0626 34.6481 9.88089C34.4668 9.69922 34.3761 9.48189 34.3761 9.22889C34.3761 8.97589 34.4668 8.75906 34.6481 8.57839C34.8295 8.39739 35.0496 8.30689 35.3086 8.30689H38.3451V5.25139C38.3451 5.00706 38.436 4.79372 38.6176 4.61139C38.7993 4.42906 39.0166 4.33789 39.2696 4.33789C39.5226 4.33789 39.7395 4.42906 39.9201 4.61139C40.1011 4.79372 40.1916 5.00706 40.1916 5.25139V8.30689H43.2471C43.4915 8.30689 43.7048 8.39822 43.8871 8.58089C44.0695 8.76356 44.1606 8.97722 44.1606 9.22189C44.1606 9.48122 44.0695 9.70122 43.8871 9.88189C43.7048 10.0629 43.4915 10.1534 43.2471 10.1534H40.1916V13.1899C40.1916 13.4489 40.1003 13.6691 39.9176 13.8504C39.735 14.0317 39.5213 14.1224 39.2766 14.1224C39.0173 14.1224 38.7973 14.0317 38.6166 13.8504C38.4356 13.6691 38.3451 13.4489 38.3451 13.1899V10.1534ZM22.4991 33.3069C24.5518 33.3069 26.2871 32.6014 27.7051 31.1904C29.1228 29.7794 29.8316 28.0407 29.8316 25.9744C29.8316 23.9347 29.1228 22.2059 27.7051 20.7879C26.2871 19.3699 24.5518 18.6609 22.4991 18.6609C20.4465 18.6609 18.7145 19.3699 17.3031 20.7879C15.8915 22.2059 15.1856 23.9347 15.1856 25.9744C15.1856 28.0407 15.8915 29.7794 17.3031 31.1904C18.7145 32.6014 20.4465 33.3069 22.4991 33.3069ZM22.4946 31.4609C20.9346 31.4609 19.6341 30.9359 18.5931 29.8859C17.5521 28.8359 17.0316 27.5354 17.0316 25.9844C17.0316 24.4337 17.5526 23.1332 18.5946 22.0829C19.6363 21.0322 20.9376 20.5069 22.4986 20.5069C24.0596 20.5069 25.3643 21.0322 26.4126 22.0829C27.4613 23.1332 27.9856 24.4337 27.9856 25.9844C27.9856 27.5354 27.4605 28.8359 26.4101 29.8859C25.3598 30.9359 24.0546 31.4609 22.4946 31.4609Z" fill="#333333"/>
</svg>
