<svg width="48" height="48" viewBox="0 0 48 48" fill="none" xmlns="http://www.w3.org/2000/svg">
<path d="M11.3543 31.7841C10.5017 31.7841 9.77568 31.4844 9.17634 30.8851C8.57701 30.2858 8.27734 29.5598 8.27734 28.7071V19.2921C8.27734 18.4394 8.57701 17.7134 9.17634 17.1141C9.77568 16.5148 10.5017 16.2151 11.3543 16.2151H36.6463C37.499 16.2151 38.225 16.5148 38.8243 17.1141C39.4237 17.7134 39.7233 18.4394 39.7233 19.2921V28.7071C39.7233 29.5598 39.4237 30.2858 38.8243 30.8851C38.225 31.4844 37.499 31.7841 36.6463 31.7841H11.3543ZM11.3543 29.9381H36.6463C37.0053 29.9381 37.3003 29.8228 37.5313 29.5921C37.762 29.3611 37.8773 29.0661 37.8773 28.7071V19.2921C37.8773 18.9331 37.762 18.6381 37.5313 18.4071C37.3003 18.1764 37.0053 18.0611 36.6463 18.0611H11.3543C10.9953 18.0611 10.7003 18.1764 10.4693 18.4071C10.2387 18.6381 10.1233 18.9331 10.1233 19.2921V28.7071C10.1233 29.0661 10.2387 29.3611 10.4693 29.5921C10.7003 29.8228 10.9953 29.9381 11.3543 29.9381ZM9.15984 11.4456C8.91251 11.4456 8.70351 11.3539 8.53284 11.1706C8.36251 10.9869 8.27734 10.7709 8.27734 10.5226C8.27734 10.2743 8.36768 10.0584 8.54834 9.87511C8.72901 9.69144 8.94951 9.59961 9.20984 9.59961H38.8598C39.0945 9.59961 39.2972 9.69144 39.4678 9.87511C39.6382 10.0584 39.7233 10.2743 39.7233 10.5226C39.7233 10.7709 39.633 10.9869 39.4523 11.1706C39.2717 11.3539 39.0575 11.4456 38.8098 11.4456H9.15984ZM9.15984 38.3996C8.91251 38.3996 8.70351 38.3078 8.53284 38.1241C8.36251 37.9408 8.27734 37.7249 8.27734 37.4766C8.27734 37.2283 8.36768 37.0123 8.54834 36.8286C8.72901 36.6453 8.94951 36.5536 9.20984 36.5536H38.8598C39.0945 36.5536 39.2972 36.6453 39.4678 36.8286C39.6382 37.0123 39.7233 37.2283 39.7233 37.4766C39.7233 37.7249 39.633 37.9408 39.4523 38.1241C39.2717 38.3078 39.0575 38.3996 38.8098 38.3996H9.15984ZM10.1233 18.0611H11.3543C10.9953 18.0611 10.7003 18.1764 10.4693 18.4071C10.2387 18.6381 10.1233 18.9331 10.1233 19.2921V28.7071C10.1233 29.0661 10.2387 29.3611 10.4693 29.5921C10.7003 29.8228 10.9953 29.9381 11.3543 29.9381H10.1233V18.0611Z" fill="#333333"/>
</svg>
