<svg width="24" height="24" viewBox="0 0 24 24" fill="none" xmlns="http://www.w3.org/2000/svg">
<path d="M10.9243 20.5746C10.7993 20.5746 10.6868 20.5329 10.5868 20.4496C10.4868 20.3663 10.4285 20.2621 10.4118 20.1371L10.1243 17.8121C9.76596 17.7121 9.36804 17.5434 8.93054 17.3059C8.49304 17.0684 8.13262 16.8163 7.84929 16.5496L5.74929 17.4496C5.63262 17.4996 5.51596 17.5079 5.39929 17.4746C5.28262 17.4413 5.19096 17.3663 5.12429 17.2496L3.98679 15.3121C3.92012 15.2038 3.89929 15.0892 3.92429 14.9684C3.94929 14.8475 4.01596 14.7454 4.12429 14.6621L5.98679 13.2746C5.94512 13.0746 5.91387 12.8704 5.89304 12.6621C5.87221 12.4538 5.86179 12.2413 5.86179 12.0246C5.86179 11.8496 5.87429 11.6559 5.89929 11.4434L5.98679 10.6996L4.13679 9.32461C4.02846 9.24961 3.96387 9.14753 3.94304 9.01836C3.92221 8.88919 3.94929 8.76628 4.02429 8.64961L5.12429 6.79961C5.19096 6.69961 5.28262 6.62878 5.39929 6.58711C5.51596 6.54544 5.63262 6.54544 5.74929 6.58711L7.84929 7.47461C8.17429 7.19961 8.53262 6.94753 8.92429 6.71836C9.31596 6.48919 9.70762 6.31211 10.0993 6.18711L10.4118 3.84961C10.4285 3.72461 10.4889 3.62044 10.593 3.53711C10.6972 3.45378 10.8118 3.41211 10.9368 3.41211H13.0743C13.1993 3.41211 13.3118 3.45378 13.4118 3.53711C13.5118 3.62044 13.5743 3.72461 13.5993 3.84961L13.8868 6.19961C14.3201 6.34961 14.7014 6.52253 15.0305 6.71836C15.3597 6.91419 15.6993 7.16628 16.0493 7.47461L18.2868 6.58711C18.3951 6.54544 18.5076 6.54544 18.6243 6.58711C18.741 6.62878 18.8368 6.69961 18.9118 6.79961L20.0118 8.67461C20.0785 8.79128 20.0972 8.91003 20.068 9.03086C20.0389 9.15169 19.9743 9.24961 19.8743 9.32461L17.8868 10.7996C17.9451 11.0329 17.9805 11.2413 17.993 11.4246C18.0055 11.6079 18.0118 11.7996 18.0118 11.9996C18.0118 12.1746 18.0035 12.3579 17.9868 12.5496C17.9701 12.7413 17.9368 12.9746 17.8868 13.2496L19.7868 14.6621C19.8951 14.7454 19.966 14.8475 19.9993 14.9684C20.0326 15.0892 20.016 15.2038 19.9493 15.3121L18.8618 17.2246C18.7868 17.3413 18.6868 17.4163 18.5618 17.4496C18.4368 17.4829 18.316 17.4746 18.1993 17.4246L16.0493 16.5121C15.7076 16.8121 15.366 17.0663 15.0243 17.2746C14.6826 17.4829 14.3035 17.6538 13.8868 17.7871L13.5993 20.1371C13.5743 20.2621 13.5118 20.3663 13.4118 20.4496C13.3118 20.5329 13.1993 20.5746 13.0743 20.5746H10.9243ZM11.9243 14.1371C12.5243 14.1371 13.0305 13.9309 13.443 13.5184C13.8555 13.1059 14.0618 12.5996 14.0618 11.9996C14.0618 11.3996 13.8555 10.8934 13.443 10.4809C13.0305 10.0684 12.5243 9.86211 11.9243 9.86211C11.3243 9.86211 10.818 10.0684 10.4055 10.4809C9.99304 10.8934 9.78679 11.3996 9.78679 11.9996C9.78679 12.5996 9.99304 13.1059 10.4055 13.5184C10.818 13.9309 11.3243 14.1371 11.9243 14.1371Z" fill="#3C8DA9"/>
</svg>
