<svg width="18" height="18" viewBox="0 0 18 18" fill="none" xmlns="http://www.w3.org/2000/svg">
<path d="M7.86816 17.8464C7.68749 17.8464 7.52741 17.786 7.38791 17.6652C7.24857 17.5443 7.16666 17.3945 7.14216 17.2157L6.86341 15.0032C6.53774 14.905 6.18116 14.7507 5.79366 14.5402C5.40616 14.3295 5.08232 14.1063 4.82216 13.8704L2.81141 14.7242C2.64291 14.7973 2.47424 14.8063 2.30541 14.7509C2.13674 14.6958 2.00482 14.5884 1.90966 14.4289L0.725907 12.4049C0.630407 12.2486 0.601407 12.0826 0.638907 11.9069C0.676407 11.7313 0.77049 11.5844 0.921157 11.4664L2.69991 10.1367C2.66407 9.95834 2.63816 9.77734 2.62216 9.59367C2.60599 9.41017 2.59791 9.21876 2.59791 9.01942C2.59791 8.86176 2.60807 8.68767 2.62841 8.49717C2.64857 8.30684 2.67341 8.08542 2.70291 7.83292L0.936407 6.52142C0.78574 6.41109 0.692824 6.26509 0.657657 6.08342C0.622324 5.90159 0.655657 5.72834 0.757657 5.56367L1.90966 3.60967C2.00666 3.46317 2.13957 3.35909 2.30841 3.29742C2.47707 3.23576 2.64574 3.23826 2.81441 3.30492L4.83066 4.15492C5.11916 3.91259 5.43757 3.68984 5.78591 3.48667C6.13441 3.28351 6.48716 3.12234 6.84416 3.00317L7.14216 0.769423C7.16666 0.59059 7.25066 0.440755 7.39416 0.319922C7.53782 0.199089 7.69999 0.138672 7.88066 0.138672H10.1337C10.3143 0.138672 10.4744 0.199089 10.6139 0.319922C10.7532 0.440755 10.8383 0.59059 10.8692 0.769423L11.1434 3.00167C11.5337 3.13984 11.8781 3.29817 12.1764 3.47667C12.4747 3.65517 12.7797 3.88126 13.0914 4.15492L15.2192 3.30492C15.3813 3.23826 15.5467 3.23576 15.7154 3.29742C15.8842 3.35909 16.0195 3.46317 16.1212 3.60967L17.2729 5.58292C17.3686 5.74576 17.3956 5.91476 17.3539 6.08992C17.3122 6.26526 17.2192 6.40909 17.0749 6.52142L15.1884 7.92142C15.2371 8.12776 15.2662 8.31251 15.2759 8.47567C15.2856 8.63884 15.2904 8.81367 15.2904 9.00017C15.2904 9.16751 15.284 9.33626 15.2712 9.50642C15.2583 9.67676 15.2297 9.88142 15.1854 10.1204L16.9989 11.4664C17.1496 11.5851 17.2473 11.7321 17.2922 11.9074C17.3372 12.0828 17.3119 12.2486 17.2164 12.4049L16.0712 14.4097C15.9677 14.5692 15.8283 14.6765 15.6532 14.7317C15.478 14.787 15.3061 14.7781 15.1374 14.7049L13.0914 13.8357C12.7919 14.0953 12.4892 14.3178 12.1832 14.5032C11.877 14.6883 11.5319 14.8476 11.1479 14.9809L10.8692 17.2157C10.8383 17.3945 10.7532 17.5443 10.6139 17.6652C10.4744 17.786 10.3143 17.8464 10.1337 17.8464H7.86816ZM8.00816 16.9232H9.94141L10.3229 14.2032C10.8166 14.0698 11.2573 13.8914 11.6452 13.6679C12.033 13.4446 12.4317 13.1303 12.8414 12.7252L15.3479 13.8039L16.3297 12.1194L14.1259 10.4752C14.2009 10.1905 14.2535 9.93092 14.2837 9.69642C14.3138 9.46192 14.3289 9.22984 14.3289 9.00017C14.3289 8.74817 14.3159 8.51467 14.2899 8.29967C14.2639 8.08467 14.2092 7.83934 14.1259 7.56367L16.3682 5.86567L15.4019 4.18092L12.8192 5.26567C12.539 4.95401 12.1525 4.65301 11.6597 4.36267C11.1667 4.07234 10.7147 3.88067 10.3039 3.78767L9.99991 1.06167H8.00666L7.70766 3.76567C7.18716 3.88167 6.72849 4.04942 6.33166 4.26892C5.93482 4.48842 5.52141 4.81234 5.09141 5.24067L2.60966 4.18092L1.61816 5.86567L3.78466 7.47217C3.70132 7.70684 3.64299 7.95301 3.60966 8.21067C3.57632 8.46834 3.55966 8.73351 3.55966 9.00617C3.55966 9.25667 3.57424 9.50276 3.60341 9.74442C3.63257 9.98609 3.68241 10.2348 3.75291 10.4907L1.61816 12.1194L2.61141 13.8039L5.06916 12.7539C5.47366 13.1584 5.88149 13.4751 6.29266 13.7039C6.70399 13.9328 7.16924 14.1097 7.68841 14.2347L8.00816 16.9232ZM8.94616 11.4232C9.61916 11.4232 10.1903 11.1882 10.6597 10.7182C11.1288 10.248 11.3634 9.67492 11.3634 8.99892C11.3634 8.32276 11.1285 7.75009 10.6587 7.28092C10.1888 6.81176 9.61607 6.57717 8.94041 6.57717C8.26157 6.57717 7.68799 6.81217 7.21966 7.28217C6.75132 7.75234 6.51716 8.32542 6.51716 9.00142C6.51716 9.67759 6.75132 10.2503 7.21966 10.7194C7.68799 11.1886 8.26349 11.4232 8.94616 11.4232Z" fill="white"/>
</svg>
