<svg width="24" height="24" viewBox="0 0 24 24" fill="none" xmlns="http://www.w3.org/2000/svg">
<path d="M7.66167 19.8465C7.23534 19.8465 6.87234 19.6967 6.57267 19.397C6.27301 19.0972 6.12317 18.7342 6.12317 18.308V6.04651H5.13867V5.12652H9.03092V4.38477H14.9847V5.12327H18.8772V6.04651H17.8924V18.3125C17.8924 18.7418 17.7441 19.1048 17.4474 19.4015C17.1508 19.6982 16.7863 19.8465 16.3539 19.8465H7.66167ZM16.9694 6.04651H7.04642V18.308C7.04642 18.4875 7.10409 18.6349 7.21942 18.7503C7.33476 18.8656 7.48217 18.9233 7.66167 18.9233H16.3539C16.5078 18.9233 16.6488 18.8592 16.7772 18.731C16.9053 18.6028 16.9694 18.4618 16.9694 18.308V6.04651ZM9.88467 16.9415H10.8079V8.01852H9.88467V16.9415ZM13.2079 16.9415H14.1309V8.01852H13.2079V16.9415Z" fill="white"/>
</svg>
