<svg width="24" height="24" viewBox="0 0 24 24" fill="none" xmlns="http://www.w3.org/2000/svg">
<path d="M9.03905 17.0005C8.60671 17.0005 8.24221 16.8522 7.94555 16.5555C7.64888 16.2589 7.50055 15.8944 7.50055 15.462V4.6928C7.50055 4.26046 7.64888 3.89596 7.94555 3.5993C8.24221 3.30263 8.60671 3.1543 9.03905 3.1543H16.8083C17.2406 3.1543 17.6051 3.30263 17.9018 3.5993C18.1985 3.89596 18.3468 4.26046 18.3468 4.6928V15.462C18.3468 15.8944 18.1985 16.2589 17.9018 16.5555C17.6051 16.8522 17.2406 17.0005 16.8083 17.0005H9.03905ZM9.03905 16.0775H16.8083C16.9621 16.0775 17.1031 16.0134 17.2313 15.885C17.3595 15.7569 17.4235 15.6159 17.4235 15.462V4.6928C17.4235 4.53896 17.3595 4.39796 17.2313 4.2698C17.1031 4.14163 16.9621 4.07755 16.8083 4.07755H9.03905C8.88521 4.07755 8.74421 4.14163 8.61605 4.2698C8.48771 4.39796 8.42355 4.53896 8.42355 4.6928V15.462C8.42355 15.6159 8.48771 15.7569 8.61605 15.885C8.74421 16.0134 8.88521 16.0775 9.03905 16.0775ZM6.1928 19.8468C5.76046 19.8468 5.39596 19.6985 5.0993 19.4018C4.80263 19.1051 4.6543 18.7406 4.6543 18.3083V6.61605H5.57755V18.3083C5.57755 18.4621 5.64163 18.6031 5.7698 18.7313C5.89796 18.8595 6.03896 18.9235 6.1928 18.9235H14.885V19.8468H6.1928Z" fill="white"/>
</svg>
