<svg width="24" height="24" viewBox="0 0 24 24" fill="none" xmlns="http://www.w3.org/2000/svg">
<path d="M16.15 12.9372H5.1875C4.92917 12.9372 4.70833 12.8456 4.525 12.6622C4.34167 12.4789 4.25 12.2581 4.25 11.9997C4.25 11.7414 4.34167 11.5206 4.525 11.3372C4.70833 11.1539 4.92917 11.0622 5.1875 11.0622H16.15L11.325 6.23724C11.1333 6.04558 11.0396 5.82474 11.0438 5.57474C11.0479 5.32474 11.1458 5.10391 11.3375 4.91224C11.5292 4.72891 11.75 4.63516 12 4.63099C12.25 4.62683 12.4708 4.72058 12.6625 4.91224L19.0875 11.3372C19.1792 11.4289 19.2479 11.531 19.2937 11.6435C19.3396 11.756 19.3625 11.8747 19.3625 11.9997C19.3625 12.1247 19.3396 12.2435 19.2937 12.356C19.2479 12.4685 19.1792 12.5706 19.0875 12.6622L12.6625 19.0872C12.4792 19.2706 12.2604 19.3622 12.0062 19.3622C11.7521 19.3622 11.5292 19.2706 11.3375 19.0872C11.1458 18.8956 11.05 18.6727 11.05 18.4185C11.05 18.1643 11.1458 17.9414 11.3375 17.7497L16.15 12.9372Z" fill="#3C8DA9"/>
</svg>
