<svg width="36" height="28" viewBox="0 0 36 28" fill="none" xmlns="http://www.w3.org/2000/svg">
<path d="M3.37612 27.7233C2.51712 27.7233 1.79095 27.4267 1.19762 26.8333C0.604284 26.24 0.307617 25.5137 0.307617 24.6543V3.34634C0.307617 2.48701 0.604284 1.76068 1.19762 1.16735C1.79095 0.574013 2.51712 0.277344 3.37612 0.277344H32.6241C33.4831 0.277344 34.2093 0.574013 34.8026 1.16735C35.396 1.76068 35.6926 2.48701 35.6926 3.34634V24.6543C35.6926 25.5137 35.396 26.24 34.8026 26.8333C34.2093 27.4267 33.4831 27.7233 32.6241 27.7233H3.37612ZM3.38462 25.8773H32.6156C32.9233 25.8773 33.2053 25.7492 33.4616 25.4928C33.7179 25.2362 33.8461 24.954 33.8461 24.6463V3.35435C33.8461 3.04668 33.7179 2.76451 33.4616 2.50785C33.2053 2.25151 32.9233 2.12335 32.6156 2.12335H3.38462C3.07695 2.12335 2.79495 2.25151 2.53862 2.50785C2.28228 2.76451 2.15412 3.04668 2.15412 3.35435V24.6463C2.15412 24.954 2.28228 25.2362 2.53862 25.4928C2.79495 25.7492 3.07695 25.8773 3.38462 25.8773ZM7.93262 21.6463H28.0866C28.5116 21.6463 28.8726 21.4983 29.1696 21.2023C29.467 20.906 29.6156 20.538 29.6156 20.0983V7.88285C29.6156 7.45785 29.467 7.09684 29.1696 6.79984C28.8726 6.50284 28.5116 6.35435 28.0866 6.35435H7.93262C7.49295 6.35435 7.12512 6.50284 6.82912 6.79984C6.53278 7.09684 6.38462 7.45785 6.38462 7.88285V20.0983C6.38462 20.538 6.53278 20.906 6.82912 21.2023C7.12512 21.4983 7.49295 21.6463 7.93262 21.6463Z" fill="#333333"/>
</svg>
