<svg width="36" height="28" viewBox="0 0 36 28" fill="none" xmlns="http://www.w3.org/2000/svg">
<path d="M21.8461 21.2618H27.7021C28.1271 21.2618 28.4881 21.1138 28.7851 20.8178C29.0825 20.5215 29.2311 20.1535 29.2311 19.7138V8.26784C29.2311 7.84284 29.0825 7.48168 28.7851 7.18434C28.4881 6.88734 28.1271 6.73885 27.7021 6.73885H21.8461C21.4065 6.73885 21.0418 6.88734 20.7521 7.18434C20.4625 7.48168 20.3176 7.84284 20.3176 8.26784V19.7138C20.3176 20.1535 20.4625 20.5215 20.7521 20.8178C21.0418 21.1138 21.4065 21.2618 21.8461 21.2618ZM8.31762 21.2618H14.1541C14.5938 21.2618 14.9616 21.1138 15.2576 20.8178C15.554 20.5215 15.7021 20.1535 15.7021 19.7138V8.26784C15.7021 7.84284 15.554 7.48168 15.2576 7.18434C14.9616 6.88734 14.5938 6.73885 14.1541 6.73885H8.31762C7.87762 6.73885 7.50962 6.88734 7.21362 7.18434C6.91728 7.48168 6.76912 7.84284 6.76912 8.26784V19.7138C6.76912 20.1535 6.91728 20.5215 7.21362 20.8178C7.50962 21.1138 7.87762 21.2618 8.31762 21.2618ZM3.37612 27.7233C2.51712 27.7233 1.79095 27.4267 1.19762 26.8333C0.604284 26.24 0.307617 25.5137 0.307617 24.6543V3.34634C0.307617 2.48701 0.604284 1.76068 1.19762 1.16735C1.79095 0.574013 2.51712 0.277344 3.37612 0.277344H32.6241C33.4831 0.277344 34.2093 0.574013 34.8026 1.16735C35.396 1.76068 35.6926 2.48701 35.6926 3.34634V24.6543C35.6926 25.5137 35.396 26.24 34.8026 26.8333C34.2093 27.4267 33.4831 27.7233 32.6241 27.7233H3.37612ZM32.6156 2.12335H3.38462C3.07695 2.12335 2.79495 2.25151 2.53862 2.50785C2.28228 2.76451 2.15412 3.04668 2.15412 3.35435V24.6463C2.15412 24.954 2.28228 25.2362 2.53862 25.4928C2.79495 25.7492 3.07695 25.8773 3.38462 25.8773H32.6156C32.9233 25.8773 33.2053 25.7492 33.4616 25.4928C33.7179 25.2362 33.8461 24.954 33.8461 24.6463V3.35435C33.8461 3.04668 33.7179 2.76451 33.4616 2.50785C33.2053 2.25151 32.9233 2.12335 32.6156 2.12335Z" fill="#333333"/>
</svg>
