<svg width="36" height="28" viewBox="0 0 36 28" fill="none" xmlns="http://www.w3.org/2000/svg">
<path d="M3.37612 27.7233C2.51712 27.7233 1.79095 27.4267 1.19762 26.8333C0.604284 26.24 0.307617 25.5137 0.307617 24.6543V3.34634C0.307617 2.48701 0.604284 1.76068 1.19762 1.16735C1.79095 0.574013 2.51712 0.277344 3.37612 0.277344H32.6241C33.4831 0.277344 34.2093 0.574013 34.8026 1.16735C35.396 1.76068 35.6926 2.48701 35.6926 3.34634V24.6543C35.6926 25.5137 35.396 26.24 34.8026 26.8333C34.2093 27.4267 33.4831 27.7233 32.6241 27.7233H3.37612ZM2.15412 17.8773H33.8461V3.35435C33.8461 3.04668 33.7179 2.76451 33.4616 2.50785C33.2053 2.25151 32.9233 2.12335 32.6156 2.12335H3.38462C3.07695 2.12335 2.79495 2.25151 2.53862 2.50785C2.28228 2.76451 2.15412 3.04668 2.15412 3.35435V17.8773Z" fill="#333333"/>
</svg>
