<svg width="16" height="16" viewBox="0 0 16 16" fill="none" xmlns="http://www.w3.org/2000/svg">
<path d="M1.67242 15.8617C1.24326 15.8617 0.880339 15.7133 0.583672 15.4167C0.287005 15.12 0.138672 14.7571 0.138672 14.3279V1.67242C0.138672 1.24326 0.287005 0.88034 0.583672 0.583673C0.880339 0.287006 1.24392 0.138672 1.67442 0.138672H6.72817C6.85084 0.138672 6.95759 0.184089 7.04842 0.274922C7.13926 0.365756 7.18467 0.472589 7.18467 0.595422C7.18467 0.725589 7.13926 0.835839 7.04842 0.926172C6.95759 1.01651 6.85084 1.06167 6.72817 1.06167H1.67717C1.52334 1.06167 1.38226 1.12576 1.25392 1.25392C1.12576 1.38226 1.06167 1.52334 1.06167 1.67717V14.3232C1.06167 14.477 1.12576 14.6181 1.25392 14.7464C1.38226 14.8746 1.52334 14.9387 1.67717 14.9387H14.3232C14.477 14.9387 14.6181 14.8746 14.7464 14.7464C14.8746 14.6181 14.9387 14.477 14.9387 14.3232V9.27217C14.9387 9.14951 14.9838 9.04276 15.0742 8.95192C15.1645 8.86109 15.2732 8.81567 15.4002 8.81567C15.5272 8.81567 15.6358 8.86109 15.7262 8.95192C15.8165 9.04276 15.8617 9.14951 15.8617 9.27217V14.3259C15.8617 14.7564 15.7133 15.12 15.4167 15.4167C15.12 15.7133 14.7571 15.8617 14.3279 15.8617H1.67242ZM14.9387 1.71067L6.08967 10.5694C5.99651 10.6546 5.89051 10.7004 5.77167 10.7069C5.65284 10.7133 5.54342 10.6633 5.44342 10.5569C5.33709 10.4569 5.28392 10.3488 5.28392 10.2324C5.28392 10.1161 5.33609 10.0089 5.44042 9.91092L14.2897 1.06167H10.3434C10.2133 1.06167 10.103 1.01651 10.0127 0.926172C9.92234 0.835839 9.87717 0.727172 9.87717 0.600172C9.87717 0.473172 9.92234 0.364506 10.0127 0.274173C10.103 0.18384 10.2133 0.138672 10.3434 0.138672H15.0972C15.3097 0.138672 15.4903 0.212923 15.6389 0.361423C15.7874 0.510089 15.8617 0.690672 15.8617 0.903172V5.65692C15.8617 5.78709 15.8163 5.89734 15.7254 5.98767C15.6346 6.07801 15.5278 6.12317 15.4049 6.12317C15.2748 6.12317 15.1645 6.07801 15.0742 5.98767C14.9838 5.89734 14.9387 5.78709 14.9387 5.65692V1.71067Z" fill="#3C8DA9"/>
</svg>
